<?xml version="1.0" encoding="UTF-8" standalone="no"?>
<!DOCTYPE svg PUBLIC "-//W3C//DTD SVG 1.1//EN"
 "http://www.w3.org/Graphics/SVG/1.1/DTD/svg11.dtd">
<!-- Generated by graphviz version 2.43.0 (0)
 -->
<!-- Pages: 1 -->
<svg width="5142pt" height="275pt"
 viewBox="0.00 0.00 5141.62 275.00" xmlns="http://www.w3.org/2000/svg" xmlns:xlink="http://www.w3.org/1999/xlink">
<g id="graph0" class="graph" transform="scale(1 1) rotate(0) translate(4 271)">
<polygon fill="white" stroke="transparent" points="-4,4 -4,-271 5137.62,-271 5137.62,4 -4,4"/>
<g id="clust1" class="cluster">
<title>clusterLegend</title>
<polygon fill="none" stroke="black" points="8,-8 8,-259 636,-259 636,-8 8,-8"/>
<text text-anchor="middle" x="322" y="-243.8" font-family="Times,serif" font-size="14.00">Legend</text>
</g>
<!-- legendNode0 -->
<g id="node1" class="node">
<title>legendNode0</title>
<polygon fill="none" stroke="black" points="339.03,-192.05 342.36,-192.15 345.65,-192.3 348.89,-192.49 352.08,-192.74 355.19,-193.03 358.22,-193.36 361.14,-193.75 363.96,-194.18 366.66,-194.65 369.23,-195.16 371.66,-195.71 373.95,-196.31 376.08,-196.94 378.05,-197.61 379.86,-198.31 381.5,-199.04 382.96,-199.8 384.25,-200.59 385.36,-201.41 386.29,-202.25 387.05,-203.11 387.63,-203.99 388.03,-204.89 388.26,-205.8 388.32,-206.72 388.22,-207.65 387.96,-208.59 387.54,-209.53 386.97,-210.47 386.26,-211.41 385.42,-212.35 384.44,-213.28 383.35,-214.2 382.13,-215.11 380.81,-216.01 379.39,-216.89 377.88,-217.75 376.28,-218.59 374.6,-219.41 372.85,-220.2 371.04,-220.96 369.16,-221.69 367.24,-222.39 365.27,-223.06 363.25,-223.69 361.2,-224.29 359.12,-224.84 357.01,-225.35 354.88,-225.82 352.73,-226.25 350.56,-226.64 348.38,-226.97 346.18,-227.26 343.98,-227.51 341.77,-227.7 339.55,-227.85 337.33,-227.95 335.11,-228 332.89,-228 330.67,-227.95 328.45,-227.85 326.23,-227.7 324.02,-227.51 321.82,-227.26 319.62,-226.97 317.44,-226.64 315.27,-226.25 313.12,-225.82 310.99,-225.35 308.88,-224.84 306.8,-224.29 304.75,-223.69 302.73,-223.06 300.76,-222.39 298.84,-221.69 296.96,-220.96 295.15,-220.2 293.4,-219.41 291.72,-218.59 290.12,-217.75 288.61,-216.89 287.19,-216.01 285.87,-215.11 284.65,-214.2 283.56,-213.28 282.58,-212.35 281.74,-211.41 281.03,-210.47 280.46,-209.53 280.04,-208.59 279.78,-207.65 279.68,-206.72 279.74,-205.8 279.97,-204.89 280.37,-203.99 280.95,-203.11 281.71,-202.25 282.64,-201.41 283.75,-200.59 285.04,-199.8 286.5,-199.04 288.14,-198.31 289.95,-197.61 291.92,-196.94 294.05,-196.31 296.34,-195.71 298.77,-195.16 301.34,-194.65 304.04,-194.18 306.86,-193.75 309.78,-193.36 312.81,-193.03 315.92,-192.74 319.11,-192.49 322.35,-192.3 325.64,-192.15 328.97,-192.05 332.32,-192 335.68,-192 339.03,-192.05"/>
<text text-anchor="middle" x="334" y="-206.9" font-family="Times,serif" font-size="12.00">Executable</text>
</g>
<!-- legendNode1 -->
<g id="node2" class="node">
<title>legendNode1</title>
<polygon fill="none" stroke="black" points="150.09,-121.54 150.09,-136.46 110.79,-147 55.21,-147 15.91,-136.46 15.91,-121.54 55.21,-111 110.79,-111 150.09,-121.54"/>
<text text-anchor="middle" x="83" y="-125.9" font-family="Times,serif" font-size="12.00">Static Library</text>
</g>
<!-- legendNode0&#45;&gt;legendNode1 -->
<g id="edge1" class="edge">
<title>legendNode0&#45;&gt;legendNode1</title>
<path fill="none" stroke="black" d="M293.17,-196.49C257.88,-185.64 205.52,-169.45 160,-155 151.53,-152.31 142.55,-149.43 133.83,-146.61"/>
<polygon fill="black" stroke="black" points="134.72,-143.22 124.13,-143.46 132.56,-149.88 134.72,-143.22"/>
</g>
<!-- legendNode2 -->
<g id="node3" class="node">
<title>legendNode2</title>
<polygon fill="none" stroke="black" points="319.1,-121.54 319.1,-136.46 276.28,-147 215.72,-147 172.9,-136.46 172.9,-121.54 215.72,-111 276.28,-111 319.1,-121.54"/>
<polygon fill="none" stroke="black" points="323.09,-118.41 323.09,-139.59 276.76,-151 215.24,-151 168.91,-139.59 168.91,-118.41 215.24,-107 276.76,-107 323.09,-118.41"/>
<text text-anchor="middle" x="246" y="-125.9" font-family="Times,serif" font-size="12.00">Shared Library</text>
</g>
<!-- legendNode0&#45;&gt;legendNode2 -->
<g id="edge2" class="edge">
<title>legendNode0&#45;&gt;legendNode2</title>
<path fill="none" stroke="black" d="M315.77,-192.63C304.68,-182.68 290.22,-169.69 277.34,-158.13"/>
<polygon fill="black" stroke="black" points="279.35,-155.23 269.57,-151.16 274.67,-160.44 279.35,-155.23"/>
</g>
<!-- legendNode3 -->
<g id="node4" class="node">
<title>legendNode3</title>
<polygon fill="none" stroke="black" points="496.92,-121.54 496.92,-136.46 453.62,-147 392.38,-147 349.08,-136.46 349.08,-121.54 392.38,-111 453.62,-111 496.92,-121.54"/>
<polygon fill="none" stroke="black" points="500.92,-118.4 500.92,-139.6 454.1,-151 391.9,-151 345.08,-139.6 345.08,-118.4 391.9,-107 454.1,-107 500.92,-118.4"/>
<polygon fill="none" stroke="black" points="504.92,-115.26 504.92,-142.74 454.58,-155 391.42,-155 341.08,-142.74 341.08,-115.26 391.42,-103 454.58,-103 504.92,-115.26"/>
<text text-anchor="middle" x="423" y="-125.9" font-family="Times,serif" font-size="12.00">Module Library</text>
</g>
<!-- legendNode0&#45;&gt;legendNode3 -->
<!-- legendNode7 -->
<g id="node8" class="node">
<title>legendNode7</title>
<polygon fill="none" stroke="black" points="627.5,-147 522.5,-147 522.5,-111 627.5,-111 627.5,-147"/>
<text text-anchor="middle" x="575" y="-125.9" font-family="Times,serif" font-size="12.00">Custom Target</text>
</g>
<!-- legendNode0&#45;&gt;legendNode7 -->
<!-- legendNode4 -->
<g id="node5" class="node">
<title>legendNode4</title>
<polygon fill="none" stroke="black" points="200.14,-39.56 108,-52 15.86,-39.56 51.05,-19.44 164.95,-19.44 200.14,-39.56"/>
<text text-anchor="middle" x="108" y="-30.9" font-family="Times,serif" font-size="12.00">Interface Library</text>
</g>
<!-- legendNode1&#45;&gt;legendNode4 -->
<g id="edge4" class="edge">
<title>legendNode1&#45;&gt;legendNode4</title>
<path fill="none" stroke="black" stroke-dasharray="5,2" d="M87.59,-110.94C91.31,-97.09 96.62,-77.32 100.9,-61.42"/>
<polygon fill="black" stroke="black" points="104.31,-62.2 103.53,-51.64 97.55,-60.39 104.31,-62.2"/>
<text text-anchor="middle" x="131.5" y="-73.8" font-family="Times,serif" font-size="14.00">Interface</text>
</g>
<!-- legendNode5 -->
<g id="node6" class="node">
<title>legendNode5</title>
<polygon fill="none" stroke="black" points="367.77,-34 330.39,-52 255.61,-52 218.23,-34 255.61,-16 330.39,-16 367.77,-34"/>
<text text-anchor="middle" x="293" y="-30.9" font-family="Times,serif" font-size="12.00">Object Library</text>
</g>
<!-- legendNode2&#45;&gt;legendNode5 -->
<g id="edge5" class="edge">
<title>legendNode2&#45;&gt;legendNode5</title>
<path fill="none" stroke="black" stroke-dasharray="1,5" d="M256.67,-106.9C263.51,-93.36 272.45,-75.67 279.74,-61.23"/>
<polygon fill="black" stroke="black" points="282.88,-62.79 284.26,-52.28 276.63,-59.63 282.88,-62.79"/>
<text text-anchor="middle" x="302" y="-73.8" font-family="Times,serif" font-size="14.00">Private</text>
</g>
<!-- legendNode6 -->
<g id="node7" class="node">
<title>legendNode6</title>
<polygon fill="none" stroke="black" points="554.95,-29.99 538.12,-45.22 470,-52 401.88,-45.22 385.05,-29.99 432.2,-17.78 507.8,-17.78 554.95,-29.99"/>
<text text-anchor="middle" x="470" y="-30.9" font-family="Times,serif" font-size="12.00">Unknown Library</text>
</g>
<!-- legendNode3&#45;&gt;legendNode6 -->
<g id="edge6" class="edge">
<title>legendNode3&#45;&gt;legendNode6</title>
<path fill="none" stroke="black" d="M435.84,-102.59C442.49,-89.43 450.58,-73.42 457.22,-60.28"/>
<polygon fill="black" stroke="black" points="460.37,-61.81 461.76,-51.31 454.13,-58.65 460.37,-61.81"/>
</g>
<!-- node0 -->
<g id="node9" class="node">
<title>node0</title>
<polygon fill="none" stroke="black" points="4462.95,-121.54 4462.95,-136.46 4436.03,-147 4397.97,-147 4371.05,-136.46 4371.05,-121.54 4397.97,-111 4436.03,-111 4462.95,-121.54"/>
<polygon fill="none" stroke="black" points="4466.95,-118.81 4466.95,-139.19 4436.79,-151 4397.21,-151 4367.05,-139.19 4367.05,-118.81 4397.21,-107 4436.79,-107 4466.95,-118.81"/>
<text text-anchor="middle" x="4417" y="-125.9" font-family="Times,serif" font-size="12.00">bitbuffer</text>
</g>
<!-- node1 -->
<g id="node10" class="node">
<title>node1</title>
<polygon fill="none" stroke="black" points="4744.74,-192.05 4748.54,-192.15 4752.31,-192.3 4756.02,-192.49 4759.65,-192.74 4763.21,-193.03 4766.66,-193.36 4770.01,-193.75 4773.23,-194.18 4776.31,-194.65 4779.25,-195.16 4782.02,-195.71 4784.63,-196.31 4787.07,-196.94 4789.32,-197.61 4791.39,-198.31 4793.26,-199.04 4794.93,-199.8 4796.4,-200.59 4797.67,-201.41 4798.74,-202.25 4799.6,-203.11 4800.26,-203.99 4800.72,-204.89 4800.99,-205.8 4801.06,-206.72 4800.94,-207.65 4800.64,-208.59 4800.16,-209.53 4799.52,-210.47 4798.7,-211.41 4797.74,-212.35 4796.62,-213.28 4795.37,-214.2 4793.99,-215.11 4792.48,-216.01 4790.85,-216.89 4789.12,-217.75 4787.3,-218.59 4785.38,-219.41 4783.38,-220.2 4781.31,-220.96 4779.17,-221.69 4776.97,-222.39 4774.72,-223.06 4772.42,-223.69 4770.07,-224.29 4767.7,-224.84 4765.29,-225.35 4762.85,-225.82 4760.39,-226.25 4757.92,-226.64 4755.42,-226.97 4752.92,-227.26 4750.4,-227.51 4747.87,-227.7 4745.34,-227.85 4742.81,-227.95 4740.27,-228 4737.73,-228 4735.19,-227.95 4732.66,-227.85 4730.13,-227.7 4727.6,-227.51 4725.08,-227.26 4722.58,-226.97 4720.08,-226.64 4717.61,-226.25 4715.15,-225.82 4712.71,-225.35 4710.3,-224.84 4707.93,-224.29 4705.58,-223.69 4703.28,-223.06 4701.03,-222.39 4698.83,-221.69 4696.69,-220.96 4694.62,-220.2 4692.62,-219.41 4690.7,-218.59 4688.88,-217.75 4687.15,-216.89 4685.52,-216.01 4684.01,-215.11 4682.63,-214.2 4681.38,-213.28 4680.26,-212.35 4679.3,-211.41 4678.48,-210.47 4677.84,-209.53 4677.36,-208.59 4677.06,-207.65 4676.94,-206.72 4677.01,-205.8 4677.28,-204.89 4677.74,-203.99 4678.4,-203.11 4679.26,-202.25 4680.33,-201.41 4681.6,-200.59 4683.07,-199.8 4684.74,-199.04 4686.61,-198.31 4688.68,-197.61 4690.93,-196.94 4693.37,-196.31 4695.98,-195.71 4698.75,-195.16 4701.69,-194.65 4704.77,-194.18 4707.99,-193.75 4711.34,-193.36 4714.79,-193.03 4718.35,-192.74 4721.98,-192.49 4725.69,-192.3 4729.46,-192.15 4733.26,-192.05 4737.08,-192 4740.92,-192 4744.74,-192.05"/>
<text text-anchor="middle" x="4739" y="-206.9" font-family="Times,serif" font-size="12.00">bitbuffer&#45;test</text>
</g>
<!-- node2 -->
<g id="node11" class="node">
<title>node2</title>
<polygon fill="none" stroke="black" points="4547.16,-121.54 4547.16,-136.46 4530.08,-147 4505.92,-147 4488.84,-136.46 4488.84,-121.54 4505.92,-111 4530.08,-111 4547.16,-121.54"/>
<polygon fill="none" stroke="black" points="4551.14,-119.31 4551.14,-138.69 4531.2,-151 4504.8,-151 4484.86,-138.69 4484.86,-119.31 4504.8,-107 4531.2,-107 4551.14,-119.31"/>
<text text-anchor="middle" x="4518" y="-125.9" font-family="Times,serif" font-size="12.00">bitio</text>
</g>
<!-- node3 -->
<g id="node12" class="node">
<title>node3</title>
<polygon fill="none" stroke="black" points="1747.21,-192.05 1749.99,-192.15 1752.75,-192.3 1755.47,-192.49 1758.13,-192.74 1760.74,-193.03 1763.27,-193.36 1765.72,-193.75 1768.08,-194.18 1770.34,-194.65 1772.49,-195.16 1774.52,-195.71 1776.44,-196.31 1778.22,-196.94 1779.87,-197.61 1781.38,-198.31 1782.75,-199.04 1783.98,-199.8 1785.06,-200.59 1785.99,-201.41 1786.77,-202.25 1787.4,-203.11 1787.89,-203.99 1788.22,-204.89 1788.42,-205.8 1788.47,-206.72 1788.38,-207.65 1788.16,-208.59 1787.81,-209.53 1787.34,-210.47 1786.74,-211.41 1786.04,-212.35 1785.22,-213.28 1784.3,-214.2 1783.29,-215.11 1782.18,-216.01 1780.99,-216.89 1779.73,-217.75 1778.39,-218.59 1776.98,-219.41 1775.52,-220.2 1774,-220.96 1772.43,-221.69 1770.82,-222.39 1769.17,-223.06 1767.48,-223.69 1765.77,-224.29 1764.03,-224.84 1762.26,-225.35 1760.48,-225.82 1758.68,-226.25 1756.86,-226.64 1755.03,-226.97 1753.2,-227.26 1751.35,-227.51 1749.5,-227.7 1747.65,-227.85 1745.79,-227.95 1743.93,-228 1742.07,-228 1740.21,-227.95 1738.35,-227.85 1736.5,-227.7 1734.65,-227.51 1732.8,-227.26 1730.97,-226.97 1729.14,-226.64 1727.32,-226.25 1725.52,-225.82 1723.74,-225.35 1721.97,-224.84 1720.23,-224.29 1718.52,-223.69 1716.83,-223.06 1715.18,-222.39 1713.57,-221.69 1712,-220.96 1710.48,-220.2 1709.02,-219.41 1707.61,-218.59 1706.27,-217.75 1705.01,-216.89 1703.82,-216.01 1702.71,-215.11 1701.7,-214.2 1700.78,-213.28 1699.96,-212.35 1699.26,-211.41 1698.66,-210.47 1698.19,-209.53 1697.84,-208.59 1697.62,-207.65 1697.53,-206.72 1697.58,-205.8 1697.78,-204.89 1698.11,-203.99 1698.6,-203.11 1699.23,-202.25 1700.01,-201.41 1700.94,-200.59 1702.02,-199.8 1703.25,-199.04 1704.62,-198.31 1706.13,-197.61 1707.78,-196.94 1709.56,-196.31 1711.48,-195.71 1713.51,-195.16 1715.66,-194.65 1717.92,-194.18 1720.28,-193.75 1722.73,-193.36 1725.26,-193.03 1727.87,-192.74 1730.53,-192.49 1733.25,-192.3 1736.01,-192.15 1738.79,-192.05 1741.6,-192 1744.4,-192 1747.21,-192.05"/>
<text text-anchor="middle" x="1743" y="-206.9" font-family="Times,serif" font-size="12.00">bitio&#45;test</text>
</g>
<!-- node3&#45;&gt;node0 -->
<g id="edge13" class="edge">
<title>node3&#45;&gt;node0</title>
<path fill="none" stroke="black" stroke-dasharray="1,5" d="M1788.28,-205.41C1840.83,-201.41 1930.13,-195.08 2007,-192 2137.52,-186.77 4230.2,-182.01 4358,-155 4363.79,-153.78 4369.72,-151.98 4375.48,-149.91"/>
<polygon fill="black" stroke="black" points="4376.92,-153.1 4384.96,-146.2 4374.37,-146.58 4376.92,-153.1"/>
</g>
<!-- node4 -->
<g id="node13" class="node">
<title>node4</title>
<polygon fill="none" stroke="black" points="2318.08,-124.99 2277.66,-140.22 2114,-147 1950.34,-140.22 1909.92,-124.99 2023.17,-112.78 2204.83,-112.78 2318.08,-124.99"/>
<text text-anchor="middle" x="2114" y="-125.9" font-family="Times,serif" font-size="12.00">/usr/local/boost/stage/lib/libboost_filesystem.so</text>
</g>
<!-- node3&#45;&gt;node4 -->
<g id="edge8" class="edge">
<title>node3&#45;&gt;node4</title>
<path fill="none" stroke="black" stroke-dasharray="1,5" d="M1784.09,-199.85C1817.24,-192.49 1865.09,-181.95 1907,-173 1949.01,-164.03 1995.88,-154.27 2034.38,-146.32"/>
<polygon fill="black" stroke="black" points="2035.4,-149.68 2044.49,-144.24 2033.99,-142.83 2035.4,-149.68"/>
</g>
<!-- node5 -->
<g id="node14" class="node">
<title>node5</title>
<polygon fill="none" stroke="black" points="1405.02,-124.99 1369.57,-140.22 1226,-147 1082.43,-140.22 1046.98,-124.99 1146.33,-112.78 1305.67,-112.78 1405.02,-124.99"/>
<text text-anchor="middle" x="1226" y="-125.9" font-family="Times,serif" font-size="12.00">/usr/local/boost/stage/lib/libboost_mpi.so</text>
</g>
<!-- node3&#45;&gt;node5 -->
<g id="edge9" class="edge">
<title>node3&#45;&gt;node5</title>
<path fill="none" stroke="black" stroke-dasharray="1,5" d="M1698.92,-202.26C1615.72,-189.55 1433.83,-161.76 1321.44,-144.58"/>
<polygon fill="black" stroke="black" points="1321.87,-141.11 1311.45,-143.06 1320.81,-148.03 1321.87,-141.11"/>
</g>
<!-- node6 -->
<g id="node15" class="node">
<title>node6</title>
<polygon fill="none" stroke="black" points="1891.21,-124.99 1844.82,-140.22 1657,-147 1469.18,-140.22 1422.79,-124.99 1552.77,-112.78 1761.23,-112.78 1891.21,-124.99"/>
<text text-anchor="middle" x="1657" y="-125.9" font-family="Times,serif" font-size="12.00">/usr/local/boost/stage/lib/libboost_program_options.so</text>
</g>
<!-- node3&#45;&gt;node6 -->
<g id="edge10" class="edge">
<title>node3&#45;&gt;node6</title>
<path fill="none" stroke="black" stroke-dasharray="1,5" d="M1725.18,-192.63C1712.92,-181.37 1696.45,-166.24 1682.77,-153.68"/>
<polygon fill="black" stroke="black" points="1684.82,-150.81 1675.09,-146.62 1680.09,-155.96 1684.82,-150.81"/>
</g>
<!-- node7 -->
<g id="node16" class="node">
<title>node7</title>
<polygon fill="none" stroke="black" points="2765.58,-124.99 2723.08,-140.22 2551,-147 2378.92,-140.22 2336.42,-124.99 2455.5,-112.78 2646.5,-112.78 2765.58,-124.99"/>
<text text-anchor="middle" x="2551" y="-125.9" font-family="Times,serif" font-size="12.00">/usr/local/boost/stage/lib/libboost_serialization.so</text>
</g>
<!-- node3&#45;&gt;node7 -->
<g id="edge11" class="edge">
<title>node3&#45;&gt;node7</title>
<path fill="none" stroke="black" stroke-dasharray="1,5" d="M1785.34,-200.78C1830.25,-192.39 1903.34,-179.69 1967,-173 2126.32,-156.26 2167.32,-167.89 2327,-155 2362.77,-152.11 2401.65,-148.09 2436.83,-144.11"/>
<polygon fill="black" stroke="black" points="2437.59,-147.54 2447.13,-142.93 2436.8,-140.59 2437.59,-147.54"/>
</g>
<!-- node8 -->
<g id="node17" class="node">
<title>node8</title>
<polygon fill="none" stroke="black" points="1028.99,-124.99 990.96,-140.22 837,-147 683.04,-140.22 645.01,-124.99 751.56,-112.78 922.44,-112.78 1028.99,-124.99"/>
<text text-anchor="middle" x="837" y="-125.9" font-family="Times,serif" font-size="12.00">/usr/local/boost/stage/lib/libboost_system.so</text>
</g>
<!-- node3&#45;&gt;node8 -->
<g id="edge12" class="edge">
<title>node3&#45;&gt;node8</title>
<path fill="none" stroke="black" stroke-dasharray="1,5" d="M1697.57,-206.27C1585.44,-199.36 1286.55,-179.96 1038,-155 1007.04,-151.89 973.46,-147.94 942.78,-144.11"/>
<polygon fill="black" stroke="black" points="942.85,-140.59 932.49,-142.81 941.98,-147.54 942.85,-140.59"/>
</g>
<!-- node9 -->
<g id="node18" class="node">
<title>node9</title>
<polygon fill="none" stroke="black" points="4033.1,-121.54 4033.1,-136.46 3991.45,-147 3932.55,-147 3890.9,-136.46 3890.9,-121.54 3932.55,-111 3991.45,-111 4033.1,-121.54"/>
<polygon fill="none" stroke="black" points="4037.09,-118.43 4037.09,-139.57 3991.95,-151 3932.05,-151 3886.91,-139.57 3886.91,-118.43 3932.05,-107 3991.95,-107 4037.09,-118.43"/>
<text text-anchor="middle" x="3962" y="-125.9" font-family="Times,serif" font-size="12.00">block&#45;statistics</text>
</g>
<!-- node10 -->
<g id="node19" class="node">
<title>node10</title>
<polygon fill="none" stroke="black" points="4914.01,-192.05 4919.31,-192.15 4924.56,-192.3 4929.74,-192.49 4934.81,-192.74 4939.77,-193.03 4944.59,-193.36 4949.25,-193.75 4953.75,-194.18 4958.05,-194.65 4962.14,-195.16 4966.02,-195.71 4969.66,-196.31 4973.06,-196.94 4976.2,-197.61 4979.08,-198.31 4981.69,-199.04 4984.02,-199.8 4986.07,-200.59 4987.85,-201.41 4989.33,-202.25 4990.54,-203.11 4991.46,-203.99 4992.1,-204.89 4992.47,-205.8 4992.57,-206.72 4992.4,-207.65 4991.99,-208.59 4991.32,-209.53 4990.42,-210.47 4989.29,-211.41 4987.94,-212.35 4986.38,-213.28 4984.64,-214.2 4982.7,-215.11 4980.6,-216.01 4978.33,-216.89 4975.92,-217.75 4973.37,-218.59 4970.7,-219.41 4967.91,-220.2 4965.02,-220.96 4962.04,-221.69 4958.97,-222.39 4955.82,-223.06 4952.61,-223.69 4949.35,-224.29 4946.03,-224.84 4942.67,-225.35 4939.27,-225.82 4935.84,-226.25 4932.39,-226.64 4928.91,-226.97 4925.41,-227.26 4921.9,-227.51 4918.38,-227.7 4914.85,-227.85 4911.31,-227.95 4907.77,-228 4904.23,-228 4900.69,-227.95 4897.15,-227.85 4893.62,-227.7 4890.1,-227.51 4886.59,-227.26 4883.09,-226.97 4879.61,-226.64 4876.16,-226.25 4872.73,-225.82 4869.33,-225.35 4865.97,-224.84 4862.65,-224.29 4859.39,-223.69 4856.18,-223.06 4853.03,-222.39 4849.96,-221.69 4846.98,-220.96 4844.09,-220.2 4841.3,-219.41 4838.63,-218.59 4836.08,-217.75 4833.67,-216.89 4831.4,-216.01 4829.3,-215.11 4827.36,-214.2 4825.62,-213.28 4824.06,-212.35 4822.71,-211.41 4821.58,-210.47 4820.68,-209.53 4820.01,-208.59 4819.6,-207.65 4819.43,-206.72 4819.53,-205.8 4819.9,-204.89 4820.54,-203.99 4821.46,-203.11 4822.67,-202.25 4824.15,-201.41 4825.93,-200.59 4827.98,-199.8 4830.31,-199.04 4832.92,-198.31 4835.8,-197.61 4838.94,-196.94 4842.34,-196.31 4845.98,-195.71 4849.86,-195.16 4853.95,-194.65 4858.25,-194.18 4862.75,-193.75 4867.41,-193.36 4872.23,-193.03 4877.19,-192.74 4882.26,-192.49 4887.44,-192.3 4892.69,-192.15 4897.99,-192.05 4903.33,-192 4908.67,-192 4914.01,-192.05"/>
<text text-anchor="middle" x="4906" y="-206.9" font-family="Times,serif" font-size="12.00">block&#45;statistics&#45;test</text>
</g>
<!-- node11 -->
<g id="node20" class="node">
<title>node11</title>
<polygon fill="none" stroke="black" points="5077.71,-192.05 5081.5,-192.15 5085.24,-192.3 5088.93,-192.49 5092.55,-192.74 5096.09,-193.03 5099.52,-193.36 5102.85,-193.75 5106.06,-194.18 5109.12,-194.65 5112.04,-195.16 5114.81,-195.71 5117.41,-196.31 5119.83,-196.94 5122.07,-197.61 5124.12,-198.31 5125.99,-199.04 5127.65,-199.8 5129.11,-200.59 5130.38,-201.41 5131.44,-202.25 5132.3,-203.11 5132.95,-203.99 5133.41,-204.89 5133.68,-205.8 5133.75,-206.72 5133.63,-207.65 5133.33,-208.59 5132.86,-209.53 5132.21,-210.47 5131.4,-211.41 5130.44,-212.35 5129.33,-213.28 5128.09,-214.2 5126.71,-215.11 5125.21,-216.01 5123.59,-216.89 5121.87,-217.75 5120.06,-218.59 5118.15,-219.41 5116.16,-220.2 5114.1,-220.96 5111.97,-221.69 5109.78,-222.39 5107.54,-223.06 5105.25,-223.69 5102.92,-224.29 5100.55,-224.84 5098.16,-225.35 5095.73,-225.82 5093.29,-226.25 5090.82,-226.64 5088.34,-226.97 5085.85,-227.26 5083.34,-227.51 5080.83,-227.7 5078.31,-227.85 5075.79,-227.95 5073.26,-228 5070.74,-228 5068.21,-227.95 5065.69,-227.85 5063.17,-227.7 5060.66,-227.51 5058.15,-227.26 5055.66,-226.97 5053.18,-226.64 5050.71,-226.25 5048.27,-225.82 5045.84,-225.35 5043.45,-224.84 5041.08,-224.29 5038.75,-223.69 5036.46,-223.06 5034.22,-222.39 5032.03,-221.69 5029.9,-220.96 5027.84,-220.2 5025.85,-219.41 5023.94,-218.59 5022.13,-217.75 5020.41,-216.89 5018.79,-216.01 5017.29,-215.11 5015.91,-214.2 5014.67,-213.28 5013.56,-212.35 5012.6,-211.41 5011.79,-210.47 5011.14,-209.53 5010.67,-208.59 5010.37,-207.65 5010.25,-206.72 5010.32,-205.8 5010.59,-204.89 5011.05,-203.99 5011.7,-203.11 5012.56,-202.25 5013.62,-201.41 5014.89,-200.59 5016.35,-199.8 5018.01,-199.04 5019.88,-198.31 5021.93,-197.61 5024.17,-196.94 5026.59,-196.31 5029.19,-195.71 5031.96,-195.16 5034.88,-194.65 5037.94,-194.18 5041.15,-193.75 5044.48,-193.36 5047.91,-193.03 5051.45,-192.74 5055.07,-192.49 5058.76,-192.3 5062.5,-192.15 5066.29,-192.05 5070.09,-192 5073.91,-192 5077.71,-192.05"/>
<text text-anchor="middle" x="5072" y="-206.9" font-family="Times,serif" font-size="12.00">common&#45;test</text>
</g>
<!-- node12 -->
<g id="node21" class="node">
<title>node12</title>
<polygon fill="none" stroke="black" points="3571.91,-121.54 3571.91,-136.46 3523.93,-147 3456.07,-147 3408.09,-136.46 3408.09,-121.54 3456.07,-111 3523.93,-111 3571.91,-121.54"/>
<polygon fill="none" stroke="black" points="3575.91,-118.33 3575.91,-139.67 3524.36,-151 3455.64,-151 3404.09,-139.67 3404.09,-118.33 3455.64,-107 3524.36,-107 3575.91,-118.33"/>
<text text-anchor="middle" x="3490" y="-125.9" font-family="Times,serif" font-size="12.00">external&#45;software</text>
</g>
<!-- node13 -->
<g id="node22" class="node">
<title>node13</title>
<polygon fill="none" stroke="black" points="2123.06,-192.05 2129.05,-192.15 2134.98,-192.3 2140.83,-192.49 2146.57,-192.74 2152.17,-193.03 2157.62,-193.36 2162.9,-193.75 2167.97,-194.18 2172.83,-194.65 2177.46,-195.16 2181.84,-195.71 2185.96,-196.31 2189.8,-196.94 2193.35,-197.61 2196.61,-198.31 2199.56,-199.04 2202.2,-199.8 2204.52,-200.59 2206.52,-201.41 2208.2,-202.25 2209.56,-203.11 2210.6,-203.99 2211.33,-204.89 2211.75,-205.8 2211.86,-206.72 2211.67,-207.65 2211.2,-208.59 2210.45,-209.53 2209.43,-210.47 2208.15,-211.41 2206.62,-212.35 2204.87,-213.28 2202.89,-214.2 2200.71,-215.11 2198.33,-216.01 2195.77,-216.89 2193.04,-217.75 2190.16,-218.59 2187.14,-219.41 2183.99,-220.2 2180.72,-220.96 2177.34,-221.69 2173.87,-222.39 2170.32,-223.06 2166.69,-223.69 2163,-224.29 2159.25,-224.84 2155.45,-225.35 2151.61,-225.82 2147.74,-226.25 2143.83,-226.64 2139.9,-226.97 2135.94,-227.26 2131.98,-227.51 2127.99,-227.7 2124,-227.85 2120,-227.95 2116,-228 2112,-228 2108,-227.95 2104,-227.85 2100.01,-227.7 2096.02,-227.51 2092.06,-227.26 2088.1,-226.97 2084.17,-226.64 2080.26,-226.25 2076.39,-225.82 2072.55,-225.35 2068.75,-224.84 2065,-224.29 2061.31,-223.69 2057.68,-223.06 2054.13,-222.39 2050.66,-221.69 2047.28,-220.96 2044.01,-220.2 2040.86,-219.41 2037.84,-218.59 2034.96,-217.75 2032.23,-216.89 2029.67,-216.01 2027.29,-215.11 2025.11,-214.2 2023.13,-213.28 2021.38,-212.35 2019.85,-211.41 2018.57,-210.47 2017.55,-209.53 2016.8,-208.59 2016.33,-207.65 2016.14,-206.72 2016.25,-205.8 2016.67,-204.89 2017.4,-203.99 2018.44,-203.11 2019.8,-202.25 2021.48,-201.41 2023.48,-200.59 2025.8,-199.8 2028.44,-199.04 2031.39,-198.31 2034.65,-197.61 2038.2,-196.94 2042.04,-196.31 2046.16,-195.71 2050.54,-195.16 2055.17,-194.65 2060.03,-194.18 2065.1,-193.75 2070.38,-193.36 2075.83,-193.03 2081.43,-192.74 2087.17,-192.49 2093.02,-192.3 2098.95,-192.15 2104.94,-192.05 2110.98,-192 2117.02,-192 2123.06,-192.05"/>
<text text-anchor="middle" x="2114" y="-206.9" font-family="Times,serif" font-size="12.00">external&#45;software&#45;test</text>
</g>
<!-- node13&#45;&gt;node4 -->
<g id="edge16" class="edge">
<title>node13&#45;&gt;node4</title>
<path fill="none" stroke="black" stroke-dasharray="1,5" d="M2114,-191.86C2114,-181.71 2114,-168.63 2114,-157.12"/>
<polygon fill="black" stroke="black" points="2117.5,-157.11 2114,-147.11 2110.5,-157.11 2117.5,-157.11"/>
</g>
<!-- node13&#45;&gt;node5 -->
<g id="edge17" class="edge">
<title>node13&#45;&gt;node5</title>
<path fill="none" stroke="black" stroke-dasharray="1,5" d="M2086.16,-192.4C2072.21,-184.98 2054.75,-177.02 2038,-173 1903.11,-140.62 1552.27,-166.16 1414,-155 1383.33,-152.53 1350.01,-148.53 1320.05,-144.45"/>
<polygon fill="black" stroke="black" points="1320.41,-140.96 1310.03,-143.06 1319.46,-147.9 1320.41,-140.96"/>
</g>
<!-- node13&#45;&gt;node6 -->
<g id="edge18" class="edge">
<title>node13&#45;&gt;node6</title>
<path fill="none" stroke="black" stroke-dasharray="1,5" d="M2098.85,-192.05C2091.49,-184.93 2082.06,-177.32 2072,-173 2071.17,-172.64 1910.74,-156.09 1789.61,-143.63"/>
<polygon fill="black" stroke="black" points="1789.8,-140.13 1779.5,-142.58 1789.09,-147.09 1789.8,-140.13"/>
</g>
<!-- node13&#45;&gt;node7 -->
<g id="edge19" class="edge">
<title>node13&#45;&gt;node7</title>
<path fill="none" stroke="black" stroke-dasharray="1,5" d="M2185.18,-196.13C2261.14,-182.4 2381.56,-160.63 2463.31,-145.85"/>
<polygon fill="black" stroke="black" points="2464.37,-149.22 2473.58,-144 2463.12,-142.33 2464.37,-149.22"/>
</g>
<!-- node13&#45;&gt;node8 -->
<g id="edge20" class="edge">
<title>node13&#45;&gt;node8</title>
<path fill="none" stroke="black" stroke-dasharray="1,5" d="M2017.59,-203.71C1954.77,-200.29 1871.03,-195.79 1797,-192 1459.71,-174.73 1374.48,-184.09 1038,-155 1005.91,-152.23 971.06,-148.24 939.52,-144.26"/>
<polygon fill="black" stroke="black" points="939.77,-140.76 929.41,-142.97 938.89,-147.7 939.77,-140.76"/>
</g>
<!-- node14 -->
<g id="node23" class="node">
<title>node14</title>
<polygon fill="none" stroke="black" points="3086,-124.99 3056.09,-140.22 2935,-147 2813.91,-140.22 2784,-124.99 2867.8,-112.78 3002.2,-112.78 3086,-124.99"/>
<text text-anchor="middle" x="2935" y="-125.9" font-family="Times,serif" font-size="12.00">/usr/lib/x86_64&#45;linux&#45;gnu/libbz2.so</text>
</g>
<!-- node13&#45;&gt;node14 -->
<g id="edge14" class="edge">
<title>node13&#45;&gt;node14</title>
<path fill="none" stroke="black" stroke-dasharray="1,5" d="M2190.04,-196.98C2243.58,-188.95 2317.01,-178.84 2382,-173 2556.15,-157.35 2601.03,-172.52 2775,-155 2800.32,-152.45 2827.74,-148.58 2852.61,-144.64"/>
<polygon fill="black" stroke="black" points="2853.42,-148.05 2862.74,-143.01 2852.31,-141.14 2853.42,-148.05"/>
</g>
<!-- node15 -->
<g id="node24" class="node">
<title>node15</title>
<polygon fill="none" stroke="black" points="3386,-124.99 3358.07,-140.22 3245,-147 3131.93,-140.22 3104,-124.99 3182.25,-112.78 3307.75,-112.78 3386,-124.99"/>
<text text-anchor="middle" x="3245" y="-125.9" font-family="Times,serif" font-size="12.00">/usr/lib/x86_64&#45;linux&#45;gnu/libz.so</text>
</g>
<!-- node13&#45;&gt;node15 -->
<g id="edge15" class="edge">
<title>node13&#45;&gt;node15</title>
<path fill="none" stroke="black" stroke-dasharray="1,5" d="M2211.76,-207.18C2388.53,-203.1 2772.88,-190.6 3095,-155 3118.43,-152.41 3143.76,-148.59 3166.82,-144.7"/>
<polygon fill="black" stroke="black" points="3167.63,-148.12 3176.9,-142.98 3166.45,-141.22 3167.63,-148.12"/>
</g>
<!-- node16 -->
<g id="node25" class="node">
<title>node16</title>
<polygon fill="none" stroke="black" points="3687.77,-121.54 3687.77,-136.46 3661.55,-147 3624.45,-147 3598.23,-136.46 3598.23,-121.54 3624.45,-111 3661.55,-111 3687.77,-121.54"/>
<polygon fill="none" stroke="black" points="3691.79,-118.84 3691.79,-139.16 3662.32,-151 3623.68,-151 3594.21,-139.16 3594.21,-118.84 3623.68,-107 3662.32,-107 3691.79,-118.84"/>
<text text-anchor="middle" x="3643" y="-125.9" font-family="Times,serif" font-size="12.00">huffman</text>
</g>
<!-- node17 -->
<g id="node26" class="node">
<title>node17</title>
<polygon fill="none" stroke="black" points="4430.56,-192.05 4434.25,-192.15 4437.89,-192.3 4441.49,-192.49 4445.01,-192.74 4448.45,-193.03 4451.8,-193.36 4455.04,-193.75 4458.16,-194.18 4461.15,-194.65 4463.99,-195.16 4466.68,-195.71 4469.21,-196.31 4471.57,-196.94 4473.75,-197.61 4475.75,-198.31 4477.57,-199.04 4479.19,-199.8 4480.61,-200.59 4481.84,-201.41 4482.88,-202.25 4483.71,-203.11 4484.35,-203.99 4484.8,-204.89 4485.06,-205.8 4485.12,-206.72 4485.01,-207.65 4484.72,-208.59 4484.26,-209.53 4483.63,-210.47 4482.84,-211.41 4481.91,-212.35 4480.83,-213.28 4479.61,-214.2 4478.27,-215.11 4476.81,-216.01 4475.24,-216.89 4473.56,-217.75 4471.79,-218.59 4469.94,-219.41 4468,-220.2 4465.99,-220.96 4463.92,-221.69 4461.79,-222.39 4459.6,-223.06 4457.38,-223.69 4455.11,-224.29 4452.8,-224.84 4450.47,-225.35 4448.11,-225.82 4445.73,-226.25 4443.33,-226.64 4440.91,-226.97 4438.48,-227.26 4436.04,-227.51 4433.6,-227.7 4431.15,-227.85 4428.69,-227.95 4426.23,-228 4423.77,-228 4421.31,-227.95 4418.85,-227.85 4416.4,-227.7 4413.96,-227.51 4411.52,-227.26 4409.09,-226.97 4406.67,-226.64 4404.27,-226.25 4401.89,-225.82 4399.53,-225.35 4397.2,-224.84 4394.89,-224.29 4392.62,-223.69 4390.4,-223.06 4388.21,-222.39 4386.08,-221.69 4384.01,-220.96 4382,-220.2 4380.06,-219.41 4378.21,-218.59 4376.44,-217.75 4374.76,-216.89 4373.19,-216.01 4371.73,-215.11 4370.39,-214.2 4369.17,-213.28 4368.09,-212.35 4367.16,-211.41 4366.37,-210.47 4365.74,-209.53 4365.28,-208.59 4364.99,-207.65 4364.88,-206.72 4364.94,-205.8 4365.2,-204.89 4365.65,-203.99 4366.29,-203.11 4367.12,-202.25 4368.16,-201.41 4369.39,-200.59 4370.81,-199.8 4372.43,-199.04 4374.25,-198.31 4376.25,-197.61 4378.43,-196.94 4380.79,-196.31 4383.32,-195.71 4386.01,-195.16 4388.85,-194.65 4391.84,-194.18 4394.96,-193.75 4398.2,-193.36 4401.55,-193.03 4404.99,-192.74 4408.51,-192.49 4412.11,-192.3 4415.75,-192.15 4419.44,-192.05 4423.14,-192 4426.86,-192 4430.56,-192.05"/>
<text text-anchor="middle" x="4425" y="-206.9" font-family="Times,serif" font-size="12.00">huffman&#45;test</text>
</g>
<!-- node17&#45;&gt;node0 -->
<g id="edge21" class="edge">
<title>node17&#45;&gt;node0</title>
<path fill="none" stroke="black" stroke-dasharray="1,5" d="M4423.26,-191.86C4422.35,-182.87 4421.21,-171.59 4420.15,-161.12"/>
<polygon fill="black" stroke="black" points="4423.62,-160.64 4419.13,-151.05 4416.66,-161.35 4423.62,-160.64"/>
</g>
<!-- node17&#45;&gt;node2 -->
<g id="edge22" class="edge">
<title>node17&#45;&gt;node2</title>
<path fill="none" stroke="black" stroke-dasharray="1,5" d="M4444.27,-192.63C4457.56,-181.34 4475.43,-166.17 4490.24,-153.58"/>
<polygon fill="black" stroke="black" points="4492.76,-156.03 4498.11,-146.89 4488.23,-150.7 4492.76,-156.03"/>
</g>
<!-- node18 -->
<g id="node27" class="node">
<title>node18</title>
<polygon fill="none" stroke="black" points="4344.94,-121.54 4344.94,-136.46 4308.65,-147 4257.35,-147 4221.06,-136.46 4221.06,-121.54 4257.35,-111 4308.65,-111 4344.94,-121.54"/>
<polygon fill="none" stroke="black" points="4348.93,-118.54 4348.93,-139.46 4309.22,-151 4256.78,-151 4217.07,-139.46 4217.07,-118.54 4256.78,-107 4309.22,-107 4348.93,-118.54"/>
<text text-anchor="middle" x="4283" y="-125.9" font-family="Times,serif" font-size="12.00">interpolative</text>
</g>
<!-- node17&#45;&gt;node18 -->
<g id="edge23" class="edge">
<title>node17&#45;&gt;node18</title>
<path fill="none" stroke="black" stroke-dasharray="1,5" d="M4396.95,-193.39C4376.68,-182.12 4348.94,-166.68 4325.9,-153.87"/>
<polygon fill="black" stroke="black" points="4327.45,-150.72 4317.01,-148.92 4324.04,-156.84 4327.45,-150.72"/>
</g>
<!-- node19 -->
<g id="node28" class="node">
<title>node19</title>
<polygon fill="none" stroke="black" points="4588.22,-192.05 4593,-192.15 4597.73,-192.3 4602.39,-192.49 4606.97,-192.74 4611.44,-193.03 4615.78,-193.36 4619.99,-193.75 4624.03,-194.18 4627.91,-194.65 4631.6,-195.16 4635.09,-195.71 4638.38,-196.31 4641.44,-196.94 4644.27,-197.61 4646.87,-198.31 4649.22,-199.04 4651.32,-199.8 4653.17,-200.59 4654.77,-201.41 4656.11,-202.25 4657.19,-203.11 4658.02,-203.99 4658.6,-204.89 4658.93,-205.8 4659.02,-206.72 4658.88,-207.65 4658.5,-208.59 4657.9,-209.53 4657.08,-210.47 4656.07,-211.41 4654.85,-212.35 4653.45,-213.28 4651.87,-214.2 4650.13,-215.11 4648.24,-216.01 4646.19,-216.89 4644.02,-217.75 4641.72,-218.59 4639.31,-219.41 4636.8,-220.2 4634.19,-220.96 4631.5,-221.69 4628.74,-222.39 4625.91,-223.06 4623.01,-223.69 4620.07,-224.29 4617.08,-224.84 4614.05,-225.35 4610.99,-225.82 4607.9,-226.25 4604.78,-226.64 4601.65,-226.97 4598.5,-227.26 4595.33,-227.51 4592.16,-227.7 4588.97,-227.85 4585.79,-227.95 4582.6,-228 4579.4,-228 4576.21,-227.95 4573.03,-227.85 4569.84,-227.7 4566.67,-227.51 4563.5,-227.26 4560.35,-226.97 4557.22,-226.64 4554.1,-226.25 4551.01,-225.82 4547.95,-225.35 4544.92,-224.84 4541.93,-224.29 4538.99,-223.69 4536.09,-223.06 4533.26,-222.39 4530.5,-221.69 4527.81,-220.96 4525.2,-220.2 4522.69,-219.41 4520.28,-218.59 4517.98,-217.75 4515.81,-216.89 4513.76,-216.01 4511.87,-215.11 4510.13,-214.2 4508.55,-213.28 4507.15,-212.35 4505.93,-211.41 4504.92,-210.47 4504.1,-209.53 4503.5,-208.59 4503.12,-207.65 4502.98,-206.72 4503.07,-205.8 4503.4,-204.89 4503.98,-203.99 4504.81,-203.11 4505.89,-202.25 4507.23,-201.41 4508.83,-200.59 4510.68,-199.8 4512.78,-199.04 4515.13,-198.31 4517.73,-197.61 4520.56,-196.94 4523.62,-196.31 4526.91,-195.71 4530.4,-195.16 4534.09,-194.65 4537.97,-194.18 4542.01,-193.75 4546.22,-193.36 4550.56,-193.03 4555.03,-192.74 4559.61,-192.49 4564.27,-192.3 4569,-192.15 4573.78,-192.05 4578.59,-192 4583.41,-192 4588.22,-192.05"/>
<text text-anchor="middle" x="4581" y="-206.9" font-family="Times,serif" font-size="12.00">interpolative&#45;test</text>
</g>
<!-- node19&#45;&gt;node0 -->
<g id="edge24" class="edge">
<title>node19&#45;&gt;node0</title>
<path fill="none" stroke="black" stroke-dasharray="1,5" d="M4548.21,-193.2C4522.59,-180.86 4486.81,-163.63 4459.09,-150.27"/>
<polygon fill="black" stroke="black" points="4460.55,-147.09 4450.02,-145.9 4457.51,-153.4 4460.55,-147.09"/>
</g>
<!-- node19&#45;&gt;node2 -->
<g id="edge25" class="edge">
<title>node19&#45;&gt;node2</title>
<path fill="none" stroke="black" stroke-dasharray="1,5" d="M4567.33,-191.86C4559.35,-181.85 4549.1,-168.99 4540,-157.59"/>
<polygon fill="black" stroke="black" points="4542.61,-155.25 4533.64,-149.61 4537.14,-159.61 4542.61,-155.25"/>
</g>
<!-- node20 -->
<g id="node29" class="node">
<title>node20</title>
<polygon fill="none" stroke="black" points="3493.8,-192.05 3496.32,-192.15 3498.81,-192.3 3501.27,-192.49 3503.68,-192.74 3506.03,-193.03 3508.32,-193.36 3510.54,-193.75 3512.67,-194.18 3514.71,-194.65 3516.66,-195.16 3518.5,-195.71 3520.22,-196.31 3521.84,-196.94 3523.33,-197.61 3524.7,-198.31 3525.94,-199.04 3527.04,-199.8 3528.02,-200.59 3528.86,-201.41 3529.57,-202.25 3530.14,-203.11 3530.57,-203.99 3530.88,-204.89 3531.05,-205.8 3531.1,-206.72 3531.02,-207.65 3530.83,-208.59 3530.51,-209.53 3530.08,-210.47 3529.54,-211.41 3528.9,-212.35 3528.17,-213.28 3527.34,-214.2 3526.42,-215.11 3525.42,-216.01 3524.34,-216.89 3523.2,-217.75 3521.99,-218.59 3520.72,-219.41 3519.4,-220.2 3518.02,-220.96 3516.6,-221.69 3515.15,-222.39 3513.66,-223.06 3512.13,-223.69 3510.58,-224.29 3509.01,-224.84 3507.41,-225.35 3505.8,-225.82 3504.17,-226.25 3502.53,-226.64 3500.88,-226.97 3499.22,-227.26 3497.55,-227.51 3495.88,-227.7 3494.2,-227.85 3492.52,-227.95 3490.84,-228 3489.16,-228 3487.48,-227.95 3485.8,-227.85 3484.12,-227.7 3482.45,-227.51 3480.78,-227.26 3479.12,-226.97 3477.47,-226.64 3475.83,-226.25 3474.2,-225.82 3472.59,-225.35 3470.99,-224.84 3469.42,-224.29 3467.87,-223.69 3466.34,-223.06 3464.85,-222.39 3463.4,-221.69 3461.98,-220.96 3460.6,-220.2 3459.28,-219.41 3458.01,-218.59 3456.8,-217.75 3455.66,-216.89 3454.58,-216.01 3453.58,-215.11 3452.66,-214.2 3451.83,-213.28 3451.1,-212.35 3450.46,-211.41 3449.92,-210.47 3449.49,-209.53 3449.17,-208.59 3448.98,-207.65 3448.9,-206.72 3448.95,-205.8 3449.12,-204.89 3449.43,-203.99 3449.86,-203.11 3450.43,-202.25 3451.14,-201.41 3451.98,-200.59 3452.96,-199.8 3454.06,-199.04 3455.3,-198.31 3456.67,-197.61 3458.16,-196.94 3459.78,-196.31 3461.5,-195.71 3463.34,-195.16 3465.29,-194.65 3467.33,-194.18 3469.46,-193.75 3471.68,-193.36 3473.97,-193.03 3476.32,-192.74 3478.73,-192.49 3481.19,-192.3 3483.68,-192.15 3486.2,-192.05 3488.73,-192 3491.27,-192 3493.8,-192.05"/>
<text text-anchor="middle" x="3490" y="-206.9" font-family="Times,serif" font-size="12.00">qscores</text>
</g>
<!-- node20&#45;&gt;node0 -->
<g id="edge33" class="edge">
<title>node20&#45;&gt;node0</title>
<path fill="none" stroke="black" stroke-dasharray="1,5" d="M3531.1,-205.45C3613.14,-198.45 3803.11,-182.73 3963,-173 4050.71,-167.67 4272.31,-174.45 4358,-155 4363.7,-153.71 4369.54,-151.89 4375.23,-149.82"/>
<polygon fill="black" stroke="black" points="4376.58,-153.06 4384.61,-146.15 4374.02,-146.54 4376.58,-153.06"/>
</g>
<!-- node20&#45;&gt;node2 -->
<g id="edge34" class="edge">
<title>node20&#45;&gt;node2</title>
<path fill="none" stroke="black" stroke-dasharray="1,5" d="M3531.12,-207.3C3712.02,-199.74 4430.16,-168.97 4476,-155 4479.62,-153.9 4483.26,-152.42 4486.79,-150.73"/>
<polygon fill="black" stroke="black" points="4488.68,-153.69 4495.83,-145.88 4485.37,-147.52 4488.68,-153.69"/>
</g>
<!-- node20&#45;&gt;node4 -->
<g id="edge28" class="edge">
<title>node20&#45;&gt;node4</title>
<path fill="none" stroke="black" stroke-dasharray="1,5" d="M3448.99,-208.14C3298.9,-204.78 2765.42,-190.86 2327,-155 2292.87,-152.21 2255.76,-148.19 2222.23,-144.2"/>
<polygon fill="black" stroke="black" points="2222.29,-140.68 2211.94,-142.96 2221.45,-147.63 2222.29,-140.68"/>
</g>
<!-- node20&#45;&gt;node5 -->
<g id="edge29" class="edge">
<title>node20&#45;&gt;node5</title>
<path fill="none" stroke="black" stroke-dasharray="1,5" d="M3448.94,-207.56C3262.28,-201.01 2500.68,-174.32 2450,-173 1989.64,-161.03 1873.23,-189.41 1414,-155 1383.03,-152.68 1349.35,-148.67 1319.17,-144.54"/>
<polygon fill="black" stroke="black" points="1319.47,-141.05 1309.08,-143.14 1318.5,-147.98 1319.47,-141.05"/>
</g>
<!-- node20&#45;&gt;node6 -->
<g id="edge30" class="edge">
<title>node20&#45;&gt;node6</title>
<path fill="none" stroke="black" stroke-dasharray="1,5" d="M3448.72,-207.46C3311.39,-202.33 2857.41,-185.52 2482,-173 2223.8,-164.39 2158.77,-172.18 1901,-155 1860.84,-152.32 1817.07,-148.22 1777.83,-144.1"/>
<polygon fill="black" stroke="black" points="1778.01,-140.6 1767.7,-143.02 1777.27,-147.56 1778.01,-140.6"/>
</g>
<!-- node20&#45;&gt;node7 -->
<g id="edge31" class="edge">
<title>node20&#45;&gt;node7</title>
<path fill="none" stroke="black" stroke-dasharray="1,5" d="M3448.85,-206.41C3339.21,-199.39 3030.95,-178.94 2775,-155 2740.43,-151.77 2702.91,-147.77 2668.64,-143.93"/>
<polygon fill="black" stroke="black" points="2668.92,-140.44 2658.59,-142.8 2668.13,-147.39 2668.92,-140.44"/>
</g>
<!-- node20&#45;&gt;node8 -->
<g id="edge32" class="edge">
<title>node20&#45;&gt;node8</title>
<path fill="none" stroke="black" stroke-dasharray="1,5" d="M3448.73,-208.34C3147.13,-203.52 1287.62,-173.23 1038,-155 1004.93,-152.59 968.95,-148.56 936.69,-144.43"/>
<polygon fill="black" stroke="black" points="936.73,-140.91 926.36,-143.09 935.83,-147.85 936.73,-140.91"/>
</g>
<!-- node20&#45;&gt;node9 -->
<g id="edge35" class="edge">
<title>node20&#45;&gt;node9</title>
<path fill="none" stroke="black" stroke-dasharray="1,5" d="M3531.02,-205.28C3602.06,-198.4 3752.33,-181.88 3877,-155 3885.21,-153.23 3893.79,-151.08 3902.21,-148.78"/>
<polygon fill="black" stroke="black" points="3903.29,-152.11 3911.98,-146.04 3901.4,-145.37 3903.29,-152.11"/>
</g>
<!-- node20&#45;&gt;node12 -->
<g id="edge36" class="edge">
<title>node20&#45;&gt;node12</title>
<path fill="none" stroke="black" stroke-dasharray="1,5" d="M3490,-191.86C3490,-182.87 3490,-171.59 3490,-161.12"/>
<polygon fill="black" stroke="black" points="3493.5,-161.05 3490,-151.05 3486.5,-161.05 3493.5,-161.05"/>
</g>
<!-- node20&#45;&gt;node14 -->
<g id="edge26" class="edge">
<title>node20&#45;&gt;node14</title>
<path fill="none" stroke="black" stroke-dasharray="1,5" d="M3449.31,-203.7C3377.64,-194.3 3224.26,-173.93 3095,-155 3071.98,-151.63 3047.12,-147.82 3024.02,-144.22"/>
<polygon fill="black" stroke="black" points="3024.32,-140.72 3013.89,-142.63 3023.23,-147.64 3024.32,-140.72"/>
</g>
<!-- node20&#45;&gt;node15 -->
<g id="edge27" class="edge">
<title>node20&#45;&gt;node15</title>
<path fill="none" stroke="black" stroke-dasharray="1,5" d="M3455.68,-197.93C3415.02,-184.82 3346.79,-162.82 3299.03,-147.42"/>
<polygon fill="black" stroke="black" points="3300.05,-144.07 3289.46,-144.34 3297.91,-150.74 3300.05,-144.07"/>
</g>
<!-- node20&#45;&gt;node16 -->
<g id="edge37" class="edge">
<title>node20&#45;&gt;node16</title>
<path fill="none" stroke="black" stroke-dasharray="1,5" d="M3517,-195.06C3540.64,-182.85 3575.32,-164.95 3602.32,-151.01"/>
<polygon fill="black" stroke="black" points="3604.24,-153.95 3611.52,-146.26 3601.02,-147.73 3604.24,-153.95"/>
</g>
<!-- node20&#45;&gt;node18 -->
<g id="edge38" class="edge">
<title>node20&#45;&gt;node18</title>
<path fill="none" stroke="black" stroke-dasharray="1,5" d="M3531.09,-205.47C3609.56,-198.77 3786.19,-183.92 3935,-173 4056.27,-164.1 4088.68,-178.42 4208,-155 4215.4,-153.55 4223.07,-151.57 4230.57,-149.35"/>
<polygon fill="black" stroke="black" points="4231.77,-152.65 4240.28,-146.33 4229.69,-145.96 4231.77,-152.65"/>
</g>
<!-- node21 -->
<g id="node30" class="node">
<title>node21</title>
<polygon fill="none" stroke="black" points="3864.1,-121.54 3864.1,-136.46 3820.11,-147 3757.89,-147 3713.9,-136.46 3713.9,-121.54 3757.89,-111 3820.11,-111 3864.1,-121.54"/>
<polygon fill="none" stroke="black" points="3868.09,-118.39 3868.09,-139.61 3820.58,-151 3757.42,-151 3709.91,-139.61 3709.91,-118.39 3757.42,-107 3820.58,-107 3868.09,-118.39"/>
<text text-anchor="middle" x="3789" y="-125.9" font-family="Times,serif" font-size="12.00">qscores&#45;settings</text>
</g>
<!-- node20&#45;&gt;node21 -->
<g id="edge39" class="edge">
<title>node20&#45;&gt;node21</title>
<path fill="none" stroke="black" stroke-dasharray="1,5" d="M3527.43,-199.74C3569.67,-189.21 3640.4,-171.36 3701,-155 3708.74,-152.91 3716.85,-150.67 3724.88,-148.43"/>
<polygon fill="black" stroke="black" points="3725.93,-151.77 3734.61,-145.69 3724.03,-145.03 3725.93,-151.77"/>
</g>
<!-- node22 -->
<g id="node31" class="node">
<title>node22</title>
<polygon fill="none" stroke="black" points="4194.93,-121.54 4194.93,-136.46 4155.14,-147 4098.86,-147 4059.07,-136.46 4059.07,-121.54 4098.86,-111 4155.14,-111 4194.93,-121.54"/>
<polygon fill="none" stroke="black" points="4198.93,-118.47 4198.93,-139.53 4155.66,-151 4098.34,-151 4055.07,-139.53 4055.07,-118.47 4098.34,-107 4155.66,-107 4198.93,-118.47"/>
<text text-anchor="middle" x="4127" y="-125.9" font-family="Times,serif" font-size="12.00">qscores&#45;single</text>
</g>
<!-- node20&#45;&gt;node22 -->
<g id="edge40" class="edge">
<title>node20&#45;&gt;node22</title>
<path fill="none" stroke="black" stroke-dasharray="1,5" d="M3531.28,-205.48C3651.47,-195.15 3995.9,-165.06 4046,-155 4053.9,-153.41 4062.12,-151.36 4070.17,-149.12"/>
<polygon fill="black" stroke="black" points="4071.24,-152.45 4079.87,-146.3 4069.29,-145.73 4071.24,-152.45"/>
</g>
<!-- node23 -->
<g id="node32" class="node">
<title>node23</title>
<polygon fill="none" stroke="black" points="4264.44,-192.05 4270.03,-192.15 4275.57,-192.3 4281.02,-192.49 4286.37,-192.74 4291.59,-193.03 4296.68,-193.36 4301.59,-193.75 4306.33,-194.18 4310.86,-194.65 4315.18,-195.16 4319.26,-195.71 4323.1,-196.31 4326.68,-196.94 4329.99,-197.61 4333.03,-198.31 4335.78,-199.04 4338.24,-199.8 4340.4,-200.59 4342.27,-201.41 4343.84,-202.25 4345.1,-203.11 4346.08,-203.99 4346.75,-204.89 4347.14,-205.8 4347.25,-206.72 4347.07,-207.65 4346.63,-208.59 4345.93,-209.53 4344.98,-210.47 4343.79,-211.41 4342.37,-212.35 4340.73,-213.28 4338.88,-214.2 4336.85,-215.11 4334.63,-216.01 4332.24,-216.89 4329.7,-217.75 4327.01,-218.59 4324.2,-219.41 4321.26,-220.2 4318.21,-220.96 4315.06,-221.69 4311.83,-222.39 4308.52,-223.06 4305.13,-223.69 4301.69,-224.29 4298.2,-224.84 4294.65,-225.35 4291.07,-225.82 4287.46,-226.25 4283.81,-226.64 4280.15,-226.97 4276.46,-227.26 4272.76,-227.51 4269.05,-227.7 4265.33,-227.85 4261.6,-227.95 4257.87,-228 4254.13,-228 4250.4,-227.95 4246.67,-227.85 4242.95,-227.7 4239.24,-227.51 4235.54,-227.26 4231.85,-226.97 4228.19,-226.64 4224.54,-226.25 4220.93,-225.82 4217.35,-225.35 4213.8,-224.84 4210.31,-224.29 4206.87,-223.69 4203.48,-223.06 4200.17,-222.39 4196.94,-221.69 4193.79,-220.96 4190.74,-220.2 4187.8,-219.41 4184.99,-218.59 4182.3,-217.75 4179.76,-216.89 4177.37,-216.01 4175.15,-215.11 4173.12,-214.2 4171.27,-213.28 4169.63,-212.35 4168.21,-211.41 4167.02,-210.47 4166.07,-209.53 4165.37,-208.59 4164.93,-207.65 4164.75,-206.72 4164.86,-205.8 4165.25,-204.89 4165.92,-203.99 4166.9,-203.11 4168.16,-202.25 4169.73,-201.41 4171.6,-200.59 4173.76,-199.8 4176.22,-199.04 4178.97,-198.31 4182.01,-197.61 4185.32,-196.94 4188.9,-196.31 4192.74,-195.71 4196.82,-195.16 4201.14,-194.65 4205.67,-194.18 4210.41,-193.75 4215.32,-193.36 4220.41,-193.03 4225.63,-192.74 4230.98,-192.49 4236.43,-192.3 4241.97,-192.15 4247.56,-192.05 4253.18,-192 4258.82,-192 4264.44,-192.05"/>
<text text-anchor="middle" x="4256" y="-206.9" font-family="Times,serif" font-size="12.00">qscores&#45;settings&#45;test</text>
</g>
<!-- node23&#45;&gt;node0 -->
<g id="edge41" class="edge">
<title>node23&#45;&gt;node0</title>
<path fill="none" stroke="black" stroke-dasharray="1,5" d="M4286.77,-192.58C4298.65,-186.34 4312.4,-179.23 4325,-173 4340.71,-165.24 4358.08,-157.02 4373.46,-149.87"/>
<polygon fill="black" stroke="black" points="4375.15,-152.95 4382.75,-145.58 4372.21,-146.6 4375.15,-152.95"/>
</g>
<!-- node23&#45;&gt;node2 -->
<g id="edge42" class="edge">
<title>node23&#45;&gt;node2</title>
<path fill="none" stroke="black" stroke-dasharray="1,5" d="M4327.53,-197.02C4371.4,-188.32 4428.14,-174.6 4476,-155 4479.42,-153.6 4482.89,-151.95 4486.3,-150.18"/>
<polygon fill="black" stroke="black" points="4488.05,-153.21 4495.09,-145.29 4484.65,-147.09 4488.05,-153.21"/>
</g>
<!-- node23&#45;&gt;node22 -->
<g id="edge43" class="edge">
<title>node23&#45;&gt;node22</title>
<path fill="none" stroke="black" stroke-dasharray="1,5" d="M4228.96,-192.44C4211.45,-181.72 4188.31,-167.55 4168.51,-155.42"/>
<polygon fill="black" stroke="black" points="4170.31,-152.42 4159.96,-150.18 4166.66,-158.39 4170.31,-152.42"/>
</g>
<!-- node24 -->
<g id="node33" class="node">
<title>node24</title>
<polygon fill="none" stroke="black" points="4070.76,-192.05 4075.89,-192.15 4080.97,-192.3 4085.98,-192.49 4090.9,-192.74 4095.7,-193.03 4100.37,-193.36 4104.88,-193.75 4109.23,-194.18 4113.4,-194.65 4117.36,-195.16 4121.11,-195.71 4124.64,-196.31 4127.93,-196.94 4130.97,-197.61 4133.76,-198.31 4136.29,-199.04 4138.55,-199.8 4140.54,-200.59 4142.25,-201.41 4143.69,-202.25 4144.86,-203.11 4145.75,-203.99 4146.37,-204.89 4146.73,-205.8 4146.82,-206.72 4146.67,-207.65 4146.26,-208.59 4145.62,-209.53 4144.74,-210.47 4143.65,-211.41 4142.34,-212.35 4140.84,-213.28 4139.14,-214.2 4137.27,-215.11 4135.23,-216.01 4133.04,-216.89 4130.71,-217.75 4128.24,-218.59 4125.65,-219.41 4122.95,-220.2 4120.15,-220.96 4117.26,-221.69 4114.29,-222.39 4111.24,-223.06 4108.14,-223.69 4104.97,-224.29 4101.76,-224.84 4098.51,-225.35 4095.22,-225.82 4091.9,-226.25 4088.55,-226.64 4085.18,-226.97 4081.8,-227.26 4078.4,-227.51 4074.99,-227.7 4071.57,-227.85 4068.14,-227.95 4064.71,-228 4061.29,-228 4057.86,-227.95 4054.43,-227.85 4051.01,-227.7 4047.6,-227.51 4044.2,-227.26 4040.82,-226.97 4037.45,-226.64 4034.1,-226.25 4030.78,-225.82 4027.49,-225.35 4024.24,-224.84 4021.03,-224.29 4017.86,-223.69 4014.76,-223.06 4011.71,-222.39 4008.74,-221.69 4005.85,-220.96 4003.05,-220.2 4000.35,-219.41 3997.76,-218.59 3995.29,-217.75 3992.96,-216.89 3990.77,-216.01 3988.73,-215.11 3986.86,-214.2 3985.16,-213.28 3983.66,-212.35 3982.35,-211.41 3981.26,-210.47 3980.38,-209.53 3979.74,-208.59 3979.33,-207.65 3979.18,-206.72 3979.27,-205.8 3979.63,-204.89 3980.25,-203.99 3981.14,-203.11 3982.31,-202.25 3983.75,-201.41 3985.46,-200.59 3987.45,-199.8 3989.71,-199.04 3992.24,-198.31 3995.03,-197.61 3998.07,-196.94 4001.36,-196.31 4004.89,-195.71 4008.64,-195.16 4012.6,-194.65 4016.77,-194.18 4021.12,-193.75 4025.63,-193.36 4030.3,-193.03 4035.1,-192.74 4040.02,-192.49 4045.03,-192.3 4050.11,-192.15 4055.24,-192.05 4060.41,-192 4065.59,-192 4070.76,-192.05"/>
<text text-anchor="middle" x="4063" y="-206.9" font-family="Times,serif" font-size="12.00">qscores&#45;single&#45;test</text>
</g>
<!-- node24&#45;&gt;node0 -->
<g id="edge44" class="edge">
<title>node24&#45;&gt;node0</title>
<path fill="none" stroke="black" stroke-dasharray="1,5" d="M4108.7,-194.02C4132.67,-186.68 4162.66,-178.3 4190,-173 4263.72,-158.71 4285.31,-173.85 4358,-155 4363.38,-153.6 4368.92,-151.8 4374.33,-149.8"/>
<polygon fill="black" stroke="black" points="4375.88,-152.95 4383.9,-146.03 4373.31,-146.44 4375.88,-152.95"/>
</g>
<!-- node24&#45;&gt;node2 -->
<g id="edge45" class="edge">
<title>node24&#45;&gt;node2</title>
<path fill="none" stroke="black" stroke-dasharray="1,5" d="M4126.94,-196.74C4136.66,-195.04 4146.58,-193.4 4156,-192 4297.61,-170.89 4340.37,-200.85 4476,-155 4479.59,-153.79 4483.2,-152.24 4486.72,-150.51"/>
<polygon fill="black" stroke="black" points="4488.63,-153.45 4495.74,-145.6 4485.29,-147.3 4488.63,-153.45"/>
</g>
<!-- node24&#45;&gt;node9 -->
<g id="edge46" class="edge">
<title>node24&#45;&gt;node9</title>
<path fill="none" stroke="black" stroke-dasharray="1,5" d="M4041.58,-192.25C4028.68,-182.16 4011.94,-169.07 3997.15,-157.49"/>
<polygon fill="black" stroke="black" points="3999.2,-154.65 3989.17,-151.25 3994.89,-160.17 3999.2,-154.65"/>
</g>
<!-- node24&#45;&gt;node18 -->
<g id="edge47" class="edge">
<title>node24&#45;&gt;node18</title>
<path fill="none" stroke="black" stroke-dasharray="1,5" d="M4092.56,-192.63C4105.59,-185.89 4121.27,-178.4 4136,-173 4166.97,-161.64 4176.33,-164.22 4208,-155 4214.55,-153.09 4221.39,-150.98 4228.15,-148.82"/>
<polygon fill="black" stroke="black" points="4229.53,-152.05 4237.96,-145.64 4227.37,-145.39 4229.53,-152.05"/>
</g>
</g>
</svg>
